<?xml version="1.0" encoding="UTF-8" standalone="no"?>
<!-- Created with Inkscape (http://www.inkscape.org/) -->

<svg
   xmlns:dc="http://purl.org/dc/elements/1.1/"
   xmlns:cc="http://creativecommons.org/ns#"
   xmlns:rdf="http://www.w3.org/1999/02/22-rdf-syntax-ns#"
   xmlns:svg="http://www.w3.org/2000/svg"
   xmlns="http://www.w3.org/2000/svg"
   xmlns:sodipodi="http://sodipodi.sourceforge.net/DTD/sodipodi-0.dtd"
   xmlns:inkscape="http://www.inkscape.org/namespaces/inkscape"
   width="200mm"
   height="200mm"
   viewBox="0 0 708.66142 708.66141"
   id="svg2"
   version="1.1"
   inkscape:version="0.91 r13725"
   sodipodi:docname="plugcat_white_30x30.svg"
   inkscape:export-filename="/Users/laurent/Documents/Github/Plugcat/plugcat-ui/modules/img/plugcat_30x30.png"
   inkscape:export-xdpi="3.8099999"
   inkscape:export-ydpi="3.8099999">
  <defs
     id="defs4" />
  <sodipodi:namedview
     id="base"
     pagecolor="#ffffff"
     bordercolor="#666666"
     borderopacity="1.0"
     inkscape:pageopacity="0.0"
     inkscape:pageshadow="2"
     inkscape:zoom="0.49497475"
     inkscape:cx="-104.97704"
     inkscape:cy="554.13421"
     inkscape:document-units="px"
     inkscape:current-layer="layer2"
     showgrid="false"
     inkscape:window-width="1280"
     inkscape:window-height="751"
     inkscape:window-x="1536"
     inkscape:window-y="68"
     inkscape:window-maximized="0" />
  <metadata
     id="metadata7">
    <rdf:RDF>
      <cc:Work
         rdf:about="">
        <dc:format>image/svg+xml</dc:format>
        <dc:type
           rdf:resource="http://purl.org/dc/dcmitype/StillImage" />
        <dc:title></dc:title>
      </cc:Work>
    </rdf:RDF>
  </metadata>
  <g
     inkscape:label="Calque 1"
     inkscape:groupmode="layer"
     id="layer1"
     transform="translate(0,-343.70079)" />
  <g
     inkscape:groupmode="layer"
     id="layer2"
     inkscape:label="Calque 2">
    <g
       transform="translate(0,-343.70079)"
       style=""
       id="g4146">
      <path
         inkscape:connector-curvature="0"
         id="path4138"
         d="m 254.82531,961.30649 c -6.41288,-6.9196 -6.37802,-15.6398 0.0965,-24.12825 4.50712,-5.90913 5.04975,-8.53917 5.04138,-24.43436 -0.0166,-31.62232 -4.11732,-83.70969 -8.31295,-105.593 -2.24777,-11.72377 -10.91614,-41.77153 -19.26304,-66.7728 -13.45837,-40.31153 -15.30379,-47.66801 -16.30353,-64.9913 -0.62004,-10.74394 -1.78881,-20.60471 -2.59727,-21.91281 -0.80846,-1.30813 -9.08983,-3.22552 -18.40305,-4.26087 -46.51076,-5.17067 -79.66613,-18.53137 -103.519829,-41.71566 -20.19071,-19.62411 -25.99044,-37.05022 -21.64731,-65.04239 3.14373,-20.26178 7.98981,-30.323 21.35379,-44.33373 12.641539,-13.25333 29.551209,-22.64345 48.907879,-27.15905 10.05126,-2.3448 13.70114,-4.40141 19.80853,-11.16156 8.85102,-9.79702 30.20765,-20.90113 40.82646,-21.22721 l 7.52381,-0.23103 5.52249,40.4061 c 3.03737,22.22335 5.56406,41.54252 5.61488,42.93148 0.23133,6.32293 -28.66568,1.58326 -46.92834,-7.69716 -13.54888,-6.88504 -23.22093,-7.47136 -34.80162,-2.10968 -15.14453,7.0117 -23.49029,19.70086 -26.18915,39.81887 -2.93214,21.85686 13.25105,39.74088 46.73074,51.64205 13.01292,4.62577 43.0319,9.72822 57.36419,9.75044 l 9.2154,0.0143 9.80624,-17.67767 c 23.4792,-42.32587 61.17175,-65.78959 100.40747,-62.5039 22.92927,1.92014 38.03721,11.36277 82.22622,51.39222 10.1197,9.16713 18.85035,16.66752 19.40143,16.66752 0.55108,0 4.1929,-6.33638 8.09296,-14.08083 4.90479,-9.73963 7.97451,-13.7418 9.95667,-12.98116 4.12088,1.58132 12.27652,14.03724 18.38053,28.07214 7.49891,17.24213 8.15955,18.20376 12.36443,17.9977 2.07677,-0.10178 13.19924,-1.2457 24.71659,-2.54205 15.7762,-1.77573 27.85892,-1.79372 48.99277,-0.073 22.27453,1.81363 28.68344,1.7601 31.11738,-0.25988 1.68589,-1.39917 6.25584,-8.55616 10.15541,-15.90444 3.89959,-7.34827 9.69787,-16.5056 12.88504,-20.34962 6.98995,-8.43047 9.62453,-7.11688 16.15018,8.05236 8.61993,20.03759 13.7191,80.65524 8.43536,100.27758 -4.81455,17.87986 -25.53888,42.07259 -46.799,54.63125 -7.12446,4.20854 -8.84029,9.28403 -12.83849,37.97723 -5.39555,38.72097 -7.24176,61.46063 -8.57351,105.59904 -1.24675,41.32126 -1.13905,43.14249 2.80804,47.47717 7.62415,8.37285 9.24726,13.34066 6.51438,19.93846 -7.26524,17.5398 -38.88597,14.5633 -48.77556,-4.5913 -3.19184,-6.182 -4.10726,-14.96712 -5.78933,-55.55838 -2.21617,-53.48028 -4.48091,-74.91025 -8.79911,-83.26069 -6.80673,-13.16279 -28.18263,-13.76965 -36.5254,-1.03696 -3.99265,6.09354 -4.86764,16.5606 -6.94541,83.08415 -1.91852,61.42588 -2.02763,61.89048 -16.23749,69.13988 -10.43447,5.3232 -22.2194,5.2703 -29.08567,-0.1308 -9.08062,-7.1428 -10.02352,-10.8723 -5.39437,-21.33731 3.5526,-8.03126 4.1151,-13.42069 4.05649,-38.86687 -0.13253,-57.55732 -4.28358,-83.00181 -18.4112,-112.85499 -8.72027,-18.42684 -26.78301,-39.6419 -42.02037,-49.35379 -16.91735,-10.78269 -35.44001,-5.38923 -44.26476,12.88906 -7.77678,16.10769 -12.7815,60.15198 -16.59455,146.041 l -2.24227,50.5076 -5.37456,5.8047 c -7.03274,7.5956 -16.20135,11.3679 -27.62947,11.3679 -7.41064,0 -10.23906,-1.0642 -14.20703,-5.3457 z"
         style="opacity:1;fill:#ffffff;fill-opacity:1" />
      <path
         inkscape:connector-curvature="0"
         id="path4140"
         d="m 228.91,526.63377 c -1.57019,-2.54062 -6.81396,-35.16614 -10.5551,-65.6714 -2.6177,-21.34471 -2.86375,-28.4441 -1.04869,-30.25916 3.6737,-3.6737 8.9995,0.8163 10.99954,9.2733 l 1.72399,7.28976 22.72462,-1.21784 c 19.92918,-1.06803 22.88144,-0.8092 23.99938,2.10409 1.64117,4.27683 -0.1032,8.75271 -3.99289,10.24533 -1.68395,0.64619 -11.68634,2.23479 -22.22754,3.53023 l -19.16581,2.35534 1.23964,7.23257 c 0.68179,3.97792 1.73534,9.73271 2.34121,12.78842 l 1.10159,5.55584 21.99175,0 c 19.79676,0 22.2039,0.3964 24.11731,3.97164 3.20771,5.99368 -4.16195,9.71174 -23.54917,11.88077 -19.89977,2.22638 -21.60971,3.13066 -20.10895,10.63448 0.63732,3.18658 0.63165,7.16744 -0.0125,8.84635 -1.22999,3.2053 -7.87032,4.2038 -9.57827,1.44028 l -9e-5,0 z"
         style="opacity:1;fill:#ffffff;fill-opacity:1" />
    </g>
  </g>
</svg>
