<?xml version="1.0" encoding="UTF-8" standalone="no"?>
<!-- Created with Inkscape (http://www.inkscape.org/) -->

<svg
   xmlns:dc="http://purl.org/dc/elements/1.1/"
   xmlns:cc="http://creativecommons.org/ns#"
   xmlns:rdf="http://www.w3.org/1999/02/22-rdf-syntax-ns#"
   xmlns:svg="http://www.w3.org/2000/svg"
   xmlns="http://www.w3.org/2000/svg"
   xmlns:sodipodi="http://sodipodi.sourceforge.net/DTD/sodipodi-0.dtd"
   xmlns:inkscape="http://www.inkscape.org/namespaces/inkscape"
   width="210mm"
   height="297mm"
   viewBox="0 0 744.09448819 1052.3622047"
   id="svg2"
   version="1.1"
   inkscape:version="0.91 r13725"
   sodipodi:docname="plugcatv2.svg">
  <defs
     id="defs4" />
  <sodipodi:namedview
     id="base"
     pagecolor="#ffffff"
     bordercolor="#666666"
     borderopacity="1.0"
     inkscape:pageopacity="0.0"
     inkscape:pageshadow="2"
     inkscape:zoom="1.4"
     inkscape:cx="331.35795"
     inkscape:cy="480.50246"
     inkscape:document-units="px"
     inkscape:current-layer="layer1"
     showgrid="false"
     inkscape:window-width="1280"
     inkscape:window-height="751"
     inkscape:window-x="40"
     inkscape:window-y="0"
     inkscape:window-maximized="0" />
  <metadata
     id="metadata7">
    <rdf:RDF>
      <cc:Work
         rdf:about="">
        <dc:format>image/svg+xml</dc:format>
        <dc:type
           rdf:resource="http://purl.org/dc/dcmitype/StillImage" />
        <dc:title></dc:title>
      </cc:Work>
    </rdf:RDF>
  </metadata>
  <g
     inkscape:label="Calque 1"
     inkscape:groupmode="layer"
     id="layer1">
    <path
       style="fill:#ff5555"
       d="m 337.61943,694.9416 c -4.2356,-0.97826 -8.33392,-5.33307 -8.32917,-8.85046 0.002,-1.52162 0.95509,-4.12715 2.11785,-5.79008 2.04108,-2.91905 2.0964,-3.76237 1.6011,-24.41143 -0.32856,-13.69756 -1.08703,-24.26307 -2.1094,-29.38409 -3.44509,-17.25617 -10.076,-29.99539 -20.82977,-40.01787 -6.64961,-6.19741 -11.96826,-9.09128 -16.70889,-9.09128 -3.87099,0 -9.81404,4.47757 -12.15041,9.15428 -4.07242,8.15178 -6.61619,29.99274 -8.27673,71.06461 l -1.15081,28.46432 -2.6919,3.07693 c -3.31969,3.79453 -8.29065,5.93783 -13.77165,5.93783 -5.20259,0 -7.59433,-1.09047 -9.52278,-4.34173 -2.39683,-4.04094 -1.9216,-8.25621 1.30089,-11.53895 l 2.81125,-2.86381 -0.74294,-22.23184 c -1.11059,-33.23412 -3.4696,-45.81483 -14.22754,-75.87641 -6.36848,-17.79582 -7.64701,-23.16195 -7.66567,-32.17352 -0.0199,-9.6038 -0.45284,-10.51988 -4.97198,-10.51988 -6.62915,0 -20.62131,-2.52449 -29.47794,-5.31848 -16.87223,-5.32264 -29.80816,-14.77515 -36.14791,-26.41394 -3.30516,-6.06774 -3.4922,-6.90278 -3.46236,-15.45765 0.0506,-14.51195 3.71764,-23.4694 13.39224,-32.71328 5.48839,-5.24404 15.51213,-10.0704 24.16903,-11.63724 3.03192,-0.54876 5.51258,-1.31982 5.51258,-1.71347 0,-0.39366 2.04632,-2.70004 4.54739,-5.1253 4.75489,-4.61078 11.97588,-8.22765 19.15875,-9.59627 l 4.20615,-0.80145 0.57034,3.60404 c 0.59347,3.75026 5.51737,40.46859 5.51737,41.14397 0,0.21174 -2.39332,0.38498 -5.3185,0.38498 -7.13765,0 -14.43518,-2.0022 -20.70517,-5.68083 -6.10572,-3.58224 -7.83045,-3.69719 -14.47633,-0.96482 -8.77711,3.60861 -12.83966,9.48456 -14.04705,20.31722 -0.60401,5.41915 -0.40578,6.78694 1.47436,10.17303 6.19225,11.15209 27.10158,19.74724 48.03891,19.74724 l 7.05054,0 3.96955,-7.4909 c 10.02935,-18.92625 25.46056,-30.73468 42.42315,-32.46346 17.38528,-1.77187 26.00883,2.51595 49.20668,24.46664 5.94704,5.62732 11.09637,9.94291 11.44296,9.59021 0.34659,-0.3527 1.62288,-2.99522 2.8362,-5.87229 1.21332,-2.87706 2.85496,-5.98866 3.64808,-6.91467 1.41107,-1.6475 1.49714,-1.63853 4.00754,0.41761 3.05666,2.50355 7.62345,10.61859 9.96774,17.71233 1.66469,5.03731 1.73572,5.10514 4.83543,4.61713 12.33856,-1.94257 16.16965,-2.30865 24.14591,-2.30729 4.95,8.5e-4 11.925,0.45358 15.5,1.00607 12.12328,1.87357 11.69767,2.02352 15.09448,-5.31812 3.1511,-6.81057 9.55323,-15.85195 11.6256,-16.41821 1.59604,-0.4361 4.91885,4.33782 6.8355,9.82066 2.13057,6.09475 4.41891,23.98054 4.52188,35.34322 0.10142,11.19109 -1.90049,17.68976 -7.96348,25.8514 -3.81084,5.12992 -12.85184,12.95568 -18.07552,15.6459 -2.53824,1.30722 -2.97684,2.20603 -3.94607,8.08652 -3.88991,23.60078 -6.05455,49.01312 -6.07827,71.35727 l -0.0141,13.30306 3,3.61061 c 3.34457,4.0253 3.71811,6.58407 1.50571,10.31406 -4.60203,7.75878 -17.57661,6.94432 -24.1144,-1.51373 -2.8536,-3.69176 -3.21208,-6.53973 -3.92354,-31.17053 -0.71839,-24.87052 -1.90909,-37.06958 -3.95485,-40.51864 -4.81284,-8.11419 -16.58849,-6.6144 -19.49835,2.4834 -0.55619,1.73897 -1.2995,17.28552 -1.65179,34.54789 -0.4861,23.81919 -0.96843,31.95329 -2.0006,33.73861 -2.97258,5.14158 -12.00932,8.91124 -18.02927,7.52088 z M 235.40499,473.73009 c -0.96747,-0.53422 -2.2303,-6.99757 -4.21339,-21.56462 -3.37301,-24.77685 -3.51771,-28.06213 -1.26916,-28.8144 2.68304,-0.89762 4.79756,0.9809 5.57534,4.95308 0.40238,2.05496 0.86549,3.85301 1.02913,3.99568 0.16364,0.14267 4.8645,-0.18248 10.44635,-0.72257 11.43147,-1.10606 13.31326,-0.57095 13.31326,3.7858 0,3.29503 -1.81982,4.0176 -13.11551,5.20761 -5.16147,0.54377 -9.4895,1.07478 -9.61785,1.18002 -0.47512,0.3896 1.39595,11.84132 2.02423,12.38908 0.35844,0.3125 4.82713,0.15309 9.93042,-0.35423 10.533,-1.0471 13.77871,-0.1677 13.77871,3.73328 0,3.08092 -3.36611,4.54273 -12,5.21128 -11.33632,0.87781 -11.21091,0.81374 -10.43394,5.33095 0.90489,5.26085 -1.55356,7.81924 -5.44759,5.66904 z"
       id="path4724"
       inkscape:connector-curvature="0" />
  </g>
</svg>
