<?xml version="1.0" encoding="UTF-8" standalone="no"?>
<!-- Created with Inkscape (http://www.inkscape.org/) -->

<svg
   xmlns:dc="http://purl.org/dc/elements/1.1/"
   xmlns:cc="http://creativecommons.org/ns#"
   xmlns:rdf="http://www.w3.org/1999/02/22-rdf-syntax-ns#"
   xmlns:svg="http://www.w3.org/2000/svg"
   xmlns="http://www.w3.org/2000/svg"
   xmlns:sodipodi="http://sodipodi.sourceforge.net/DTD/sodipodi-0.dtd"
   xmlns:inkscape="http://www.inkscape.org/namespaces/inkscape"
   width="200mm"
   height="200mm"
   viewBox="0 0 708.66142 708.66141"
   id="svg2"
   version="1.1"
   inkscape:version="0.91 r13725"
   sodipodi:docname="plugcat.svg">
  <defs
     id="defs4" />
  <sodipodi:namedview
     id="base"
     pagecolor="#ffffff"
     bordercolor="#666666"
     borderopacity="1.0"
     inkscape:pageopacity="0.0"
     inkscape:pageshadow="2"
     inkscape:zoom="0.49497475"
     inkscape:cx="440.75728"
     inkscape:cy="311.6976"
     inkscape:document-units="px"
     inkscape:current-layer="layer1"
     showgrid="false"
     inkscape:window-width="1280"
     inkscape:window-height="751"
     inkscape:window-x="40"
     inkscape:window-y="0"
     inkscape:window-maximized="0" />
  <metadata
     id="metadata7">
    <rdf:RDF>
      <cc:Work
         rdf:about="">
        <dc:format>image/svg+xml</dc:format>
        <dc:type
           rdf:resource="http://purl.org/dc/dcmitype/StillImage" />
        <dc:title></dc:title>
      </cc:Work>
    </rdf:RDF>
  </metadata>
  <g
     inkscape:label="Calque 1"
     inkscape:groupmode="layer"
     id="layer1"
     transform="translate(0,-343.70079)">
    <path
       style="fill:#000000"
       d="m 433.40022,967.53543 c -8.40829,-1.94199 -16.54406,-10.58693 -16.53463,-17.56947 0.004,-3.02065 1.89599,-8.19301 4.20424,-11.49417 4.05185,-5.79475 4.16167,-7.46887 3.17842,-48.46032 -0.65224,-27.19169 -2.15791,-48.16579 -4.18747,-58.33178 -6.83901,-34.25606 -20.00236,-59.5453 -41.35019,-79.44141 -13.20046,-12.30278 -23.75877,-18.04754 -33.16962,-18.04754 -7.68449,0 -19.48233,8.88864 -24.12037,18.1726 -8.08436,16.18249 -13.13412,59.54004 -16.43054,141.0738 l -2.28453,56.50591 -5.34382,6.10816 c -6.59008,7.53271 -16.45817,11.78747 -27.33877,11.78747 -10.32791,0 -15.07587,-2.16474 -18.90413,-8.61897 -4.75807,-8.02187 -3.81466,-16.38981 2.58246,-22.90653 l 5.58075,-5.68509 -1.47485,-44.13351 c -2.20469,-65.97466 -6.88767,-90.94924 -28.24378,-150.62594 -12.64238,-35.32734 -15.18045,-45.97991 -15.21749,-63.86921 -0.0395,-19.06497 -0.89896,-20.88353 -9.87012,-20.88353 -13.15985,0 -40.93636,-5.01148 -58.51809,-10.55797 -33.49388,-10.56623 -59.17362,-29.33087 -71.75897,-52.43559 -6.56123,-12.04537 -6.93254,-13.70305 -6.8733,-30.68573 0.10045,-28.80838 7.38007,-46.59025 26.58559,-64.94072 10.89527,-10.4102 30.79388,-19.99124 47.97911,-23.10165 6.01881,-1.08937 10.94329,-2.62004 10.94329,-3.40149 0,-0.78148 4.06225,-5.35998 9.02724,-10.17449 9.43917,-9.15308 23.7739,-16.3331 38.03297,-19.05002 l 8.34983,-1.59099 1.13221,7.15455 c 1.17813,7.44482 10.9528,80.33616 10.9528,81.67689 0,0.42034 -4.7511,0.76424 -10.55801,0.76424 -14.1693,0 -28.65598,-3.97466 -41.10284,-11.27729 -12.12076,-7.11128 -15.54461,-7.33947 -28.73767,-1.91531 -17.42386,7.16363 -25.48863,18.82826 -27.88548,40.3327 -1.19904,10.75782 -0.80553,13.47308 2.92683,20.19498 12.29253,22.13855 53.80066,39.2012 95.36437,39.2012 l 13.99637,0 7.88014,-14.87055 c 19.90975,-37.57142 50.543,-61.0129 84.21626,-64.44479 34.51236,-3.51742 51.63139,4.99454 97.68256,48.56992 11.80576,11.17106 22.02795,19.73815 22.71598,19.03799 0.68803,-0.70017 3.22166,-5.94596 5.63028,-11.65737 2.40862,-5.71139 5.66752,-11.88838 7.24198,-13.72665 2.80118,-3.27053 2.97204,-3.25272 7.95556,0.82902 6.06792,4.96992 15.13368,21.07948 19.78744,35.1616 3.30466,9.99981 3.44566,10.13447 9.59905,9.16569 24.49387,-3.85629 32.09916,-4.58301 47.93322,-4.58031 9.82648,0.002 23.67289,0.90042 30.7698,1.9972 24.06651,3.71931 23.22161,4.01699 29.96478,-10.55726 6.2554,-13.51999 18.96458,-31.46847 23.07855,-32.59258 3.16837,-0.86573 9.76464,8.61121 13.56948,19.49546 4.2295,12.09899 8.77219,47.60494 8.9766,70.16154 0.20133,22.21598 -3.77275,35.1168 -15.80869,51.31887 -7.56508,10.18366 -25.51281,25.71895 -35.88259,31.05944 -5.03878,2.59502 -5.90947,4.37929 -7.83354,16.05294 -7.72204,46.85105 -12.01918,97.29832 -12.06626,141.65478 l -0.028,26.40855 5.95544,7.16759 c 6.63947,7.99082 7.381,13.07036 2.98906,20.47495 -9.13571,15.40233 -34.89218,13.7855 -47.87067,-3.00498 -5.66482,-7.3287 -6.37645,-12.98234 -7.78881,-61.87813 -1.42611,-49.37168 -3.78982,-73.58863 -7.85096,-80.43552 -9.5542,-16.10787 -32.93062,-13.13057 -38.70712,4.92992 -1.10412,3.45211 -2.5797,34.31432 -3.27905,68.58269 -0.96498,47.28463 -1.92248,63.43202 -3.97149,66.97615 -5.90101,10.2068 -23.84028,17.69013 -35.79078,14.93006 z M 230.48938,528.39774 c -1.92057,-1.06051 -4.42747,-13.89122 -8.3642,-42.80898 -6.69593,-49.18572 -6.98318,-55.70749 -2.51947,-57.20086 5.32623,-1.78191 9.52387,1.94723 11.06787,9.8326 0.79879,4.0794 1.71813,7.6488 2.04298,7.93202 0.32485,0.28322 9.65675,-0.36225 20.73756,-1.43441 22.69316,-2.1957 26.42879,-1.13342 26.42879,7.51537 0,6.54113 -3.61261,7.97554 -26.03623,10.33788 -10.24629,1.07947 -18.83807,2.1336 -19.09286,2.34252 -0.94319,0.77341 2.77117,23.50678 4.0184,24.59416 0.71155,0.62036 9.58257,0.30391 19.71335,-0.7032 20.90957,-2.07865 27.35279,-0.33291 27.35279,7.41112 0,6.11608 -6.68223,9.01799 -23.82178,10.34516 -22.50428,1.74258 -22.25532,1.6154 -20.71292,10.58273 1.79634,10.44357 -3.08405,15.52235 -10.81428,11.25389 z"
       id="path4724"
       inkscape:connector-curvature="0" />
  </g>
</svg>
